<?xml version="1.0" encoding="UTF-8"?>
<svg xmlns="http://www.w3.org/2000/svg" xmlns:xlink="http://www.w3.org/1999/xlink" width="26px" height="26px" viewBox="0 0 26 26" version="1.1">
<g id="surface1">
<path style=" stroke:none;fill-rule:nonzero;fill:rgb(0%,0%,0%);fill-opacity:1;" d="M 15.644531 9.574219 L 14.933594 9.167969 L 14.527344 8.457031 L 13.707031 8.457031 L 13 8.046875 L 12.292969 8.457031 L 11.472656 8.457031 L 11.066406 9.167969 L 10.355469 9.574219 L 10.355469 10.394531 L 9.945312 11.101562 L 10.355469 11.808594 L 10.355469 12.628906 L 11.066406 13.035156 L 11.472656 13.746094 L 12.292969 13.746094 L 13 14.15625 L 13.707031 13.746094 L 14.527344 13.746094 L 14.933594 13.035156 L 15.644531 12.628906 L 15.644531 11.808594 L 16.054688 11.101562 L 15.644531 10.394531 Z M 10.355469 11.417969 L 10.171875 11.101562 L 10.355469 10.785156 Z M 14.414062 8.652344 L 14.597656 8.96875 L 14.046875 8.652344 C 14.046875 8.652344 14.414062 8.652344 14.414062 8.652344 Z M 13 8.273438 L 13.316406 8.457031 L 12.683594 8.457031 Z M 11.585938 8.652344 L 11.953125 8.652344 L 11.402344 8.96875 Z M 10.550781 9.6875 L 10.867188 9.503906 L 10.550781 10.054688 C 10.550781 10.054688 10.550781 9.6875 10.550781 9.6875 Z M 10.550781 12.515625 L 10.550781 12.148438 L 10.867188 12.699219 Z M 11.585938 13.550781 L 11.402344 13.234375 L 11.953125 13.550781 Z M 13 13.929688 L 12.683594 13.746094 L 13.316406 13.746094 Z M 14.414062 13.550781 L 14.046875 13.550781 L 14.597656 13.234375 Z M 15.449219 12.515625 L 15.132812 12.699219 L 15.449219 12.148438 Z M 15.449219 11.757812 L 14.792969 12.894531 L 13.65625 13.550781 L 12.34375 13.550781 L 11.207031 12.894531 L 10.550781 11.757812 L 10.550781 10.445312 L 11.207031 9.308594 L 12.34375 8.652344 L 13.65625 8.652344 L 14.792969 9.308594 L 15.449219 10.445312 Z M 15.449219 10.054688 L 15.132812 9.503906 L 15.449219 9.6875 Z M 15.828125 11.101562 L 15.644531 11.417969 L 15.644531 10.785156 Z M 15.828125 11.101562 "/>
<path style=" stroke:none;fill-rule:nonzero;fill:rgb(0%,0%,0%);fill-opacity:1;" d="M 11.203125 11.9375 C 11.203125 12.0625 11.214844 12.183594 11.242188 12.300781 C 11.175781 12.113281 11.144531 11.914062 11.144531 11.707031 C 11.144531 10.886719 11.671875 10.191406 12.410156 9.945312 C 12.414062 9.949219 12.417969 9.953125 12.421875 9.957031 L 12.585938 10.085938 L 12.554688 10.199219 C 11.777344 10.398438 11.203125 11.101562 11.203125 11.9375 Z M 14.855469 11.707031 C 14.855469 10.886719 14.328125 10.191406 13.589844 9.945312 C 13.585938 9.949219 13.582031 9.953125 13.578125 9.957031 L 13.414062 10.085938 L 13.445312 10.199219 C 14.222656 10.398438 14.796875 11.101562 14.796875 11.9375 C 14.796875 12.0625 14.785156 12.183594 14.757812 12.300781 C 14.824219 12.113281 14.855469 11.914062 14.855469 11.707031 Z M 12.96875 9.394531 L 12.851562 9.707031 C 12.847656 9.71875 12.835938 9.730469 12.820312 9.730469 L 12.488281 9.742188 C 12.457031 9.746094 12.445312 9.785156 12.46875 9.804688 L 12.730469 10.011719 C 12.742188 10.019531 12.746094 10.03125 12.742188 10.046875 L 12.652344 10.367188 C 12.644531 10.398438 12.679688 10.421875 12.703125 10.402344 L 12.980469 10.21875 C 12.992188 10.210938 13.007812 10.210938 13.019531 10.21875 L 13.296875 10.402344 C 13.320312 10.421875 13.355469 10.398438 13.347656 10.367188 L 13.257812 10.046875 C 13.253906 10.03125 13.257812 10.019531 13.269531 10.011719 L 13.53125 9.804688 C 13.554688 9.785156 13.542969 9.746094 13.511719 9.742188 L 13.179688 9.730469 C 13.164062 9.730469 13.152344 9.71875 13.148438 9.707031 L 13.03125 9.394531 C 13.019531 9.367188 12.980469 9.367188 12.96875 9.394531 Z M 14.535156 11.394531 C 14.511719 11.449219 14.480469 11.496094 14.4375 11.535156 C 14.261719 11.707031 14.003906 11.765625 13.769531 11.714844 C 13.738281 11.773438 13.710938 11.835938 13.691406 11.898438 C 13.6875 12.019531 13.710938 12.140625 13.757812 12.25 C 13.722656 12.265625 13.6875 12.277344 13.652344 12.285156 C 13.664062 12.429688 13.6875 12.570312 13.722656 12.710938 C 13.734375 12.75 13.742188 12.800781 13.707031 12.820312 C 13.691406 12.832031 13.667969 12.832031 13.652344 12.824219 C 13.621094 12.808594 13.605469 12.78125 13.589844 12.753906 C 13.507812 12.613281 13.441406 12.460938 13.390625 12.304688 C 13.382812 12.28125 13.363281 12.261719 13.335938 12.257812 C 13.335938 12.257812 13.335938 12.253906 13.335938 12.253906 C 13.292969 12.246094 13.25 12.269531 13.242188 12.3125 C 13.226562 12.398438 13.210938 12.484375 13.207031 12.570312 C 13.203125 12.605469 13.195312 12.652344 13.15625 12.660156 C 13.140625 12.664062 13.125 12.65625 13.109375 12.644531 C 13.089844 12.625 13.082031 12.59375 13.078125 12.566406 C 13.03125 12.304688 13.035156 12.03125 13.085938 11.765625 C 13.113281 11.609375 13.148438 11.457031 13.199219 11.304688 C 13.1875 11.285156 13.175781 11.265625 13.164062 11.242188 C 13.058594 11.046875 13.019531 10.8125 13.042969 10.589844 C 13.046875 10.546875 13.0625 10.496094 13.101562 10.488281 C 13.128906 10.484375 13.152344 10.496094 13.167969 10.515625 C 13.195312 10.546875 13.195312 10.585938 13.199219 10.625 C 13.21875 10.832031 13.28125 11.039062 13.40625 11.207031 C 13.421875 11.234375 13.445312 11.257812 13.464844 11.28125 C 13.472656 11.277344 13.480469 11.273438 13.488281 11.269531 C 13.472656 11.25 13.453125 11.226562 13.4375 11.203125 C 13.410156 11.160156 13.382812 11.109375 13.386719 11.058594 C 13.390625 11.015625 13.421875 10.996094 13.441406 10.957031 C 13.457031 10.929688 13.472656 10.898438 13.492188 10.875 C 13.511719 10.851562 13.539062 10.832031 13.570312 10.824219 C 13.597656 10.820312 13.621094 10.824219 13.648438 10.816406 C 13.644531 10.8125 13.644531 10.808594 13.644531 10.804688 C 13.632812 10.792969 13.644531 10.773438 13.65625 10.761719 C 13.652344 10.777344 13.652344 10.792969 13.660156 10.8125 C 13.675781 10.796875 13.691406 10.765625 13.710938 10.753906 C 13.742188 10.730469 13.78125 10.71875 13.820312 10.714844 C 13.816406 10.679688 13.824219 10.644531 13.847656 10.617188 C 13.839844 10.640625 13.84375 10.664062 13.855469 10.679688 C 13.855469 10.644531 13.878906 10.613281 13.90625 10.59375 C 13.894531 10.628906 13.910156 10.667969 13.933594 10.695312 C 13.957031 10.71875 13.992188 10.738281 14.019531 10.757812 C 14.027344 10.765625 14.035156 10.769531 14.042969 10.777344 C 14.089844 10.804688 14.136719 10.84375 14.171875 10.886719 C 14.203125 10.925781 14.214844 10.9375 14.226562 10.988281 C 14.230469 11.003906 14.226562 11.03125 14.222656 11.054688 C 14.234375 11.082031 14.238281 11.105469 14.238281 11.132812 C 14.25 11.203125 14.234375 11.277344 14.195312 11.339844 C 14.140625 11.433594 14.042969 11.496094 13.941406 11.535156 C 13.9375 11.535156 13.933594 11.539062 13.925781 11.539062 C 14.132812 11.566406 14.351562 11.492188 14.476562 11.332031 C 14.484375 11.324219 14.492188 11.3125 14.503906 11.308594 C 14.523438 11.304688 14.542969 11.320312 14.546875 11.339844 C 14.550781 11.359375 14.542969 11.378906 14.535156 11.394531 Z M 13.164062 12.53125 C 13.15625 12.523438 13.148438 12.511719 13.136719 12.515625 C 13.132812 12.515625 13.128906 12.519531 13.125 12.523438 C 13.113281 12.535156 13.109375 12.550781 13.113281 12.566406 C 13.113281 12.582031 13.117188 12.59375 13.128906 12.609375 C 13.132812 12.617188 13.144531 12.628906 13.15625 12.625 C 13.164062 12.621094 13.167969 12.613281 13.171875 12.601562 C 13.175781 12.578125 13.171875 12.554688 13.164062 12.53125 Z M 13.632812 12.652344 C 13.621094 12.65625 13.617188 12.671875 13.613281 12.6875 C 13.613281 12.722656 13.628906 12.753906 13.648438 12.777344 C 13.652344 12.78125 13.660156 12.789062 13.664062 12.789062 C 13.671875 12.792969 13.679688 12.792969 13.6875 12.789062 C 13.695312 12.785156 13.695312 12.773438 13.695312 12.765625 C 13.699219 12.734375 13.691406 12.703125 13.675781 12.675781 C 13.671875 12.667969 13.667969 12.660156 13.660156 12.65625 C 13.652344 12.648438 13.644531 12.648438 13.632812 12.652344 Z M 13.65625 11.851562 C 13.574219 11.875 13.261719 11.832031 13.160156 11.773438 C 13.152344 11.792969 13.148438 11.8125 13.140625 11.835938 C 13.292969 11.910156 13.46875 11.945312 13.640625 11.929688 C 13.644531 11.902344 13.652344 11.878906 13.65625 11.851562 Z M 12.914062 11.765625 C 12.964844 12.03125 12.96875 12.300781 12.921875 12.566406 C 12.917969 12.59375 12.910156 12.625 12.890625 12.644531 C 12.875 12.65625 12.859375 12.664062 12.84375 12.660156 C 12.804688 12.652344 12.796875 12.605469 12.792969 12.570312 C 12.789062 12.484375 12.773438 12.398438 12.757812 12.3125 C 12.75 12.269531 12.707031 12.246094 12.664062 12.253906 C 12.664062 12.253906 12.664062 12.257812 12.664062 12.257812 C 12.636719 12.261719 12.617188 12.28125 12.609375 12.304688 C 12.558594 12.460938 12.492188 12.613281 12.410156 12.753906 C 12.394531 12.78125 12.378906 12.808594 12.347656 12.824219 C 12.332031 12.832031 12.308594 12.832031 12.292969 12.820312 C 12.257812 12.800781 12.265625 12.75 12.277344 12.710938 C 12.316406 12.558594 12.34375 12.402344 12.351562 12.246094 C 12.359375 12.0625 12.316406 11.878906 12.230469 11.714844 C 11.996094 11.765625 11.738281 11.707031 11.5625 11.535156 C 11.519531 11.496094 11.488281 11.449219 11.464844 11.394531 C 11.457031 11.378906 11.449219 11.359375 11.453125 11.339844 C 11.457031 11.320312 11.476562 11.304688 11.496094 11.308594 C 11.507812 11.3125 11.515625 11.324219 11.523438 11.332031 C 11.652344 11.496094 11.875 11.570312 12.082031 11.539062 C 12.175781 11.523438 12.265625 11.488281 12.347656 11.4375 C 12.335938 11.425781 12.320312 11.414062 12.316406 11.410156 C 12.230469 11.449219 12.128906 11.460938 12.035156 11.441406 C 11.945312 11.421875 11.859375 11.375 11.808594 11.296875 C 11.761719 11.226562 11.746094 11.132812 11.777344 11.054688 C 11.773438 11.03125 11.769531 11.003906 11.773438 10.988281 C 11.785156 10.9375 11.796875 10.925781 11.828125 10.886719 C 11.863281 10.84375 11.910156 10.804688 11.957031 10.777344 C 11.964844 10.769531 11.972656 10.765625 11.980469 10.757812 C 12.007812 10.738281 12.042969 10.71875 12.066406 10.695312 C 12.089844 10.667969 12.105469 10.628906 12.09375 10.59375 C 12.121094 10.613281 12.144531 10.644531 12.144531 10.679688 C 12.15625 10.664062 12.160156 10.640625 12.152344 10.617188 C 12.175781 10.644531 12.183594 10.679688 12.179688 10.714844 C 12.21875 10.71875 12.257812 10.730469 12.289062 10.753906 C 12.308594 10.765625 12.324219 10.796875 12.339844 10.8125 C 12.347656 10.792969 12.347656 10.777344 12.34375 10.761719 C 12.355469 10.773438 12.367188 10.792969 12.355469 10.804688 C 12.355469 10.808594 12.355469 10.8125 12.351562 10.816406 C 12.378906 10.824219 12.402344 10.820312 12.429688 10.824219 C 12.460938 10.832031 12.488281 10.851562 12.507812 10.875 C 12.527344 10.898438 12.542969 10.929688 12.558594 10.957031 C 12.578125 10.996094 12.609375 11.015625 12.613281 11.058594 C 12.617188 11.109375 12.589844 11.160156 12.5625 11.203125 C 12.546875 11.226562 12.527344 11.25 12.511719 11.269531 C 12.519531 11.273438 12.527344 11.28125 12.535156 11.285156 C 12.554688 11.257812 12.578125 11.234375 12.59375 11.207031 C 12.71875 11.039062 12.78125 10.832031 12.800781 10.625 C 12.804688 10.585938 12.804688 10.546875 12.832031 10.515625 C 12.847656 10.496094 12.871094 10.484375 12.898438 10.488281 C 12.9375 10.496094 12.953125 10.546875 12.957031 10.589844 C 12.980469 10.8125 12.941406 11.046875 12.835938 11.242188 C 12.824219 11.265625 12.8125 11.285156 12.800781 11.304688 C 12.851562 11.457031 12.886719 11.609375 12.914062 11.765625 Z M 12.394531 12.6875 C 12.394531 12.671875 12.386719 12.65625 12.375 12.652344 C 12.367188 12.648438 12.355469 12.648438 12.347656 12.65625 C 12.339844 12.660156 12.335938 12.667969 12.332031 12.675781 C 12.316406 12.703125 12.308594 12.734375 12.3125 12.765625 C 12.3125 12.773438 12.3125 12.785156 12.320312 12.789062 C 12.328125 12.792969 12.335938 12.792969 12.34375 12.789062 C 12.351562 12.789062 12.355469 12.78125 12.359375 12.777344 C 12.382812 12.753906 12.394531 12.722656 12.394531 12.6875 Z M 12.863281 11.835938 C 12.859375 11.8125 12.851562 11.792969 12.847656 11.773438 C 12.742188 11.832031 12.429688 11.875 12.347656 11.851562 C 12.355469 11.878906 12.359375 11.902344 12.367188 11.929688 C 12.535156 11.945312 12.710938 11.910156 12.863281 11.835938 Z M 12.894531 12.566406 C 12.898438 12.550781 12.894531 12.535156 12.882812 12.523438 C 12.882812 12.519531 12.875 12.515625 12.871094 12.515625 C 12.859375 12.511719 12.851562 12.523438 12.847656 12.53125 C 12.835938 12.554688 12.832031 12.578125 12.835938 12.601562 C 12.839844 12.613281 12.84375 12.621094 12.851562 12.625 C 12.863281 12.628906 12.875 12.617188 12.882812 12.609375 C 12.890625 12.59375 12.894531 12.582031 12.894531 12.566406 Z M 12.894531 12.566406 "/>
<path style=" stroke:none;fill-rule:nonzero;fill:rgb(0%,0%,0%);fill-opacity:1;" d="M 4.816406 17.207031 L 6.148438 17.207031 L 6.148438 17 L 5.117188 17 L 6.136719 15.414062 L 6.136719 15.269531 L 4.90625 15.269531 L 4.90625 15.476562 L 5.835938 15.476562 L 4.816406 17.0625 Z M 6.519531 17.207031 L 6.757812 17.207031 L 6.757812 15.773438 L 6.519531 15.773438 Z M 6.640625 15.476562 C 6.734375 15.476562 6.800781 15.414062 6.800781 15.316406 C 6.800781 15.226562 6.734375 15.160156 6.640625 15.160156 C 6.546875 15.160156 6.480469 15.226562 6.480469 15.316406 C 6.480469 15.414062 6.546875 15.476562 6.640625 15.476562 Z M 7.246094 17.8125 L 7.484375 17.8125 L 7.484375 17.328125 L 7.480469 17.078125 C 7.609375 17.183594 7.746094 17.242188 7.875 17.242188 C 8.207031 17.242188 8.5 16.960938 8.5 16.46875 C 8.5 16.027344 8.300781 15.738281 7.929688 15.738281 C 7.761719 15.738281 7.601562 15.832031 7.472656 15.9375 L 7.464844 15.9375 L 7.445312 15.773438 L 7.246094 15.773438 Z M 7.835938 17.042969 C 7.742188 17.042969 7.613281 17.003906 7.484375 16.890625 L 7.484375 16.136719 C 7.625 16.007812 7.75 15.941406 7.871094 15.941406 C 8.144531 15.941406 8.25 16.15625 8.25 16.472656 C 8.25 16.828125 8.074219 17.042969 7.835938 17.042969 Z M 8.882812 17.8125 L 9.125 17.8125 L 9.125 17.328125 L 9.117188 17.078125 C 9.246094 17.183594 9.382812 17.242188 9.515625 17.242188 C 9.84375 17.242188 10.136719 16.960938 10.136719 16.46875 C 10.136719 16.027344 9.9375 15.738281 9.566406 15.738281 C 9.402344 15.738281 9.238281 15.832031 9.109375 15.9375 L 9.101562 15.9375 L 9.082031 15.773438 L 8.882812 15.773438 Z M 9.472656 17.042969 C 9.378906 17.042969 9.253906 17.003906 9.125 16.890625 L 9.125 16.136719 C 9.261719 16.007812 9.386719 15.941406 9.507812 15.941406 C 9.78125 15.941406 9.886719 16.15625 9.886719 16.472656 C 9.886719 16.828125 9.710938 17.042969 9.472656 17.042969 Z M 11.671875 17.242188 C 12.074219 17.242188 12.328125 17 12.328125 16.691406 C 12.328125 16.40625 12.15625 16.273438 11.929688 16.175781 L 11.652344 16.058594 C 11.503906 15.992188 11.332031 15.921875 11.332031 15.734375 C 11.332031 15.558594 11.476562 15.449219 11.695312 15.449219 C 11.875 15.449219 12.019531 15.519531 12.136719 15.632812 L 12.265625 15.476562 C 12.128906 15.332031 11.925781 15.234375 11.695312 15.234375 C 11.34375 15.234375 11.085938 15.453125 11.085938 15.75 C 11.085938 16.03125 11.300781 16.171875 11.480469 16.246094 L 11.757812 16.367188 C 11.941406 16.449219 12.082031 16.515625 12.082031 16.710938 C 12.082031 16.902344 11.929688 17.027344 11.675781 17.027344 C 11.472656 17.027344 11.277344 16.933594 11.140625 16.789062 L 10.992188 16.953125 C 11.164062 17.132812 11.398438 17.242188 11.671875 17.242188 Z M 13.265625 17.242188 C 13.460938 17.242188 13.617188 17.175781 13.742188 17.09375 L 13.65625 16.9375 C 13.550781 17.007812 13.4375 17.050781 13.296875 17.050781 C 13.023438 17.050781 12.835938 16.855469 12.820312 16.546875 L 13.789062 16.546875 C 13.792969 16.515625 13.796875 16.464844 13.796875 16.410156 C 13.796875 16 13.59375 15.738281 13.226562 15.738281 C 12.894531 15.738281 12.582031 16.027344 12.582031 16.492188 C 12.582031 16.964844 12.886719 17.242188 13.265625 17.242188 Z M 12.820312 16.375 C 12.847656 16.09375 13.027344 15.929688 13.230469 15.929688 C 13.453125 15.929688 13.585938 16.085938 13.585938 16.375 Z M 14.152344 17.207031 L 14.390625 17.207031 L 14.390625 16.167969 C 14.523438 16.019531 14.644531 15.949219 14.753906 15.949219 C 14.9375 15.949219 15.019531 16.0625 15.019531 16.332031 L 15.019531 17.207031 L 15.261719 17.207031 L 15.261719 16.167969 C 15.394531 16.019531 15.511719 15.949219 15.625 15.949219 C 15.804688 15.949219 15.890625 16.0625 15.890625 16.332031 L 15.890625 17.207031 L 16.128906 17.207031 L 16.128906 16.300781 C 16.128906 15.933594 15.992188 15.738281 15.695312 15.738281 C 15.519531 15.738281 15.371094 15.851562 15.222656 16.011719 C 15.164062 15.84375 15.042969 15.738281 14.824219 15.738281 C 14.652344 15.738281 14.503906 15.84375 14.378906 15.984375 L 14.371094 15.984375 L 14.351562 15.773438 L 14.152344 15.773438 Z M 16.597656 17.207031 L 16.839844 17.207031 L 16.839844 15.773438 L 16.597656 15.773438 Z M 16.71875 15.476562 C 16.816406 15.476562 16.878906 15.414062 16.878906 15.316406 C 16.878906 15.226562 16.816406 15.160156 16.71875 15.160156 C 16.625 15.160156 16.558594 15.226562 16.558594 15.316406 C 16.558594 15.414062 16.625 15.476562 16.71875 15.476562 Z M 17.578125 17.242188 C 17.644531 17.242188 17.683594 17.234375 17.71875 17.222656 L 17.683594 17.035156 C 17.65625 17.042969 17.648438 17.042969 17.632812 17.042969 C 17.597656 17.042969 17.5625 17.011719 17.5625 16.9375 L 17.5625 15.105469 L 17.324219 15.105469 L 17.324219 16.921875 C 17.324219 17.125 17.398438 17.242188 17.578125 17.242188 Z M 18.332031 17.242188 C 18.394531 17.242188 18.4375 17.234375 18.472656 17.222656 L 18.4375 17.035156 C 18.410156 17.042969 18.398438 17.042969 18.386719 17.042969 C 18.347656 17.042969 18.316406 17.011719 18.316406 16.9375 L 18.316406 15.105469 L 18.078125 15.105469 L 18.078125 16.921875 C 18.078125 17.125 18.152344 17.242188 18.332031 17.242188 Z M 19.160156 17.242188 C 19.335938 17.242188 19.496094 17.148438 19.636719 17.035156 L 19.644531 17.035156 L 19.664062 17.207031 L 19.863281 17.207031 L 19.863281 16.328125 C 19.863281 15.972656 19.714844 15.738281 19.367188 15.738281 C 19.136719 15.738281 18.933594 15.839844 18.800781 15.925781 L 18.894531 16.089844 C 19.007812 16.015625 19.160156 15.9375 19.328125 15.9375 C 19.5625 15.9375 19.621094 16.113281 19.621094 16.300781 C 19.011719 16.367188 18.738281 16.523438 18.738281 16.835938 C 18.738281 17.09375 18.917969 17.242188 19.160156 17.242188 Z M 19.226562 17.050781 C 19.085938 17.050781 18.976562 16.984375 18.976562 16.820312 C 18.976562 16.636719 19.140625 16.515625 19.621094 16.457031 L 19.621094 16.859375 C 19.480469 16.984375 19.367188 17.050781 19.226562 17.050781 Z M 20.695312 17.242188 C 21.03125 17.242188 21.21875 17.050781 21.21875 16.816406 C 21.21875 16.546875 20.988281 16.460938 20.777344 16.382812 C 20.617188 16.320312 20.46875 16.269531 20.46875 16.132812 C 20.46875 16.023438 20.554688 15.925781 20.738281 15.925781 C 20.863281 15.925781 20.964844 15.980469 21.0625 16.054688 L 21.179688 15.898438 C 21.066406 15.8125 20.910156 15.738281 20.734375 15.738281 C 20.421875 15.738281 20.238281 15.917969 20.238281 16.144531 C 20.238281 16.386719 20.457031 16.484375 20.65625 16.558594 C 20.816406 16.621094 20.984375 16.683594 20.984375 16.832031 C 20.984375 16.953125 20.890625 17.054688 20.703125 17.054688 C 20.53125 17.054688 20.402344 16.988281 20.277344 16.886719 L 20.160156 17.042969 C 20.296875 17.160156 20.492188 17.242188 20.695312 17.242188 Z M 20.695312 17.242188 "/>
</g>
</svg>
