<svg xmlns="http://www.w3.org/2000/svg" class="svg-logo" width="2400" height="2400" viewBox="0 0 630 430" style="height: auto;"><rect width="630" height="630" y="-100" rx="0" ry="0" fill="transparent" fill-opacity="0"></rect><g data-element="wrapper" transform="translate(-3.069544618483633e-12 -46.00000000000253) scale(1.0000000000000098)"><g data-element="container" transform="translate(241.02739726027397 141.02739726027397) scale(0.2465753424657534)"><g ><path id="fill_x5F_1" d="M367.033,49.829H232.967l-116.105,67.033L49.829,232.967v134.066l67.033,116.105
	l116.105,67.033h134.066l116.105-67.033l67.033-116.105V232.967l-67.033-116.105L367.033,49.829z" fill="transparent" fill-opacity="0"></path>
<path id="frame_x5F_1_149_" d="M559.808,150l-69.615-40.192L450,40.192h-80.385L300,0l-69.615,40.192H150l-40.192,69.615L40.192,150
	v80.385L0,300l40.192,69.615V450l69.615,40.192L150,559.808h80.385L300,600l69.615-40.192H450l40.192-69.615L559.808,450v-80.385
	L600,300l-40.192-69.615V150z M40.192,331.098L22.238,300l17.954-31.098V331.098z M438.881,59.451l17.954,31.098l-53.863-31.098
	C402.972,59.451,438.881,59.451,438.881,59.451z M300,22.238l31.098,17.954h-62.196L300,22.238z M161.119,59.451h35.909
	l-53.863,31.098L161.119,59.451z M59.451,161.119l31.098-17.954l-31.098,53.863C59.451,197.028,59.451,161.119,59.451,161.119z
	 M59.451,438.881v-35.909l31.098,53.863L59.451,438.881z M161.119,540.549l-17.954-31.098l53.863,31.098H161.119z M300,577.762
	l-31.098-17.954h62.196L300,577.762z M438.881,540.549h-35.909l53.863-31.098L438.881,540.549z M540.549,438.881l-31.098,17.954
	l31.098-53.863V438.881z M540.549,364.455l-64.455,111.639l-111.639,64.455h-128.91l-111.639-64.455L59.451,364.455v-128.91
	l64.455-111.639l111.639-64.455h128.91l111.639,64.455l64.455,111.639V364.455z M540.549,197.028l-31.098-53.863l31.098,17.954
	V197.028z M577.762,300l-17.954,31.098v-62.196L577.762,300z" fill="#000000" fill-opacity="1"></path></g></g><g ><g data-element="icon" transform="scale(0.16627868007276497) translate(1596.772029876709 995.3716282219109)"><path id="color_x5F_1_30_" d="M35.939,419.611c0,18.028,1.826,35.629,5.297,52.63c-9.178-27.191-14.228-56.282-14.228-86.57    c0-119.428,77.363-220.779,184.706-256.695c0.573,0.533,1.102,1.097,1.726,1.59l23.88,18.869l-4.667,16.621    C119.559,194.955,35.939,297.513,35.939,419.611z M568.268,385.671c0-119.428-77.364-220.78-184.707-256.695    c-0.573,0.533-1.103,1.097-1.726,1.59l-23.878,18.867l4.668,16.624c113.092,28.9,196.712,131.458,196.712,253.555    c0,18.027-1.825,35.627-5.296,52.628C563.218,445.049,568.268,415.958,568.268,385.671z M292.98,49.079l-16.817,45.426    c-0.696,1.88-2.454,3.158-4.457,3.239l-48.4,1.956c-4.606,0.186-6.496,6.002-2.879,8.86l38.006,30.031    c1.573,1.243,2.245,3.31,1.703,5.24l-13.096,46.635c-1.246,4.439,3.701,8.033,7.537,5.476l40.306-26.866    c1.668-1.112,3.841-1.112,5.51,0l40.306,26.866c3.836,2.557,8.783-1.037,7.537-5.476l-13.096-46.635    c-0.542-1.93,0.13-3.997,1.703-5.24l38.006-30.031c3.617-2.858,1.728-8.674-2.879-8.86l-48.4-1.956    c-2.003-0.081-3.761-1.358-4.457-3.239l-16.817-45.426C300.695,44.755,294.58,44.755,292.98,49.079z M521.281,340.543    c-3.444,7.602-8.16,14.619-14.125,20.457c-25.63,25.081-63.142,33.27-97.418,26.21c-4.569,8.491-8.277,17.44-11.137,26.652    c-0.707,17.49,2.495,35.142,9.503,51.188c-5.081,2.081-10.332,3.715-15.653,5.07c1.693,20.892,5.196,41.637,10.656,61.873    c1.546,5.73,2.684,13.148-2.486,16.337c-2.363,1.458-5.402,1.408-7.937,0.274c-4.4-1.968-6.902-6.075-9.195-10.081    c-11.864-20.728-21.557-42.682-28.991-65.378c-1.172-3.579-4.034-6.346-7.684-7.274c-0.057-0.014-0.113-0.029-0.17-0.043    c-6.124-1.57-12.342,2.211-13.627,8.401c-2.563,12.337-4.372,24.831-5.402,37.389c-0.434,5.298-1.725,11.894-7.05,13.011    c-2.434,0.511-4.979-0.453-6.771-2.178c-3.108-2.992-3.971-7.21-4.689-11.279c-6.784-38.497-6.281-78.246,1.319-116.587    c3.563-22.839,9.015-45.372,16.232-67.332c-1.821-2.909-3.561-5.868-5.165-8.898c-15.325-28.952-20.746-62.682-17.506-95.28    c0.604-6.08,2.532-13.392,8.644-14.727c3.635-0.795,7.304,1.01,9.618,3.923c3.57,4.496,3.97,10.256,4.501,15.768    c2.92,30.27,12.122,60.393,29.889,85.074c2.746,3.815,5.734,7.469,8.893,10.972c1.186-0.574,2.383-1.125,3.54-1.757    c-2.798-3.131-5.394-6.442-7.713-9.937c-4.174-6.286-7.653-13.477-7.331-21.017c0.262-6.115,5.294-9.377,8.022-14.857    c2.077-4.171,4.215-8.373,7.247-11.912c3.033-3.538,7.09-6.401,11.697-7.105c4.016-0.614,7.151-0.302,11.013-1.442    c-0.219-0.474-0.446-0.946-0.719-1.409c-1.249-2.118,0.386-5.109,2.228-6.739c-0.699,2.388-0.594,4.95,0.147,7.318    c2.713-1.984,4.981-6.601,7.437-8.362c4.854-3.478,10.287-5.122,15.93-5.487c-0.449-5.057,0.916-10.27,4.229-14.097    c-1.224,2.916-0.716,6.487,1.273,8.945c0.013-5.028,2.922-9.947,7.322-12.381c-2.027,4.857,0.251,10.582,3.85,14.422    c3.599,3.841,8.347,6.362,12.588,9.478c1.053,0.774,2.089,1.61,3.065,2.51c7.323,4.269,14.048,9.845,19.128,16.138    c4.731,5.861,6.049,7.255,7.709,14.603c0.58,2.566,0.428,6.151-0.207,9.967c1.355,3.612,1.994,7.44,2.113,11.3    c1.442,10.114-0.852,20.953-6.125,29.821c-8.163,13.728-22.251,23.114-37.206,28.723c-0.644,0.241-1.313,0.408-1.962,0.637    c29.642,4.086,61.691-6.73,80.188-30.235c1.055-1.34,2.178-2.796,3.814-3.276c2.692-0.788,5.489,1.64,6.081,4.382    C523.488,335.096,522.452,337.957,521.281,340.543z M321.322,506.117c-0.715-1.462-2.049-2.985-3.649-2.691    c-0.816,0.15-1.474,0.757-1.975,1.418c-1.314,1.734-1.849,3.988-1.69,6.157c0.159,2.17,0.976,4.256,2.132,6.099    c0.911,1.452,2.47,2.917,4.111,2.425c1.31-0.394,1.958-1.855,2.261-3.189C323.286,512.926,322.859,509.257,321.322,506.117z     M390.115,523.356c-2.107,0.729-2.822,3.352-2.829,5.581c-0.016,4.666,1.747,9.317,4.853,12.801    c0.706,0.792,1.502,1.541,2.481,1.952s2.175,0.43,3.046-0.176c1.118-0.777,1.402-2.293,1.475-3.652    c0.238-4.419-0.793-8.899-2.938-12.77c-0.629-1.134-1.373-2.241-2.418-3.008C392.739,523.315,391.341,522.932,390.115,523.356z     M393.388,407.171c-11.799,2.969-57.505-2.969-72.503-11.888c-0.891,3.035-1.809,6.062-2.704,9.096    c22.317,11.335,47.851,16.268,72.77,13.877C391.764,414.56,392.576,410.866,393.388,407.171z M284.851,394.583    c7.599,38.341,8.103,78.09,1.319,116.587c-0.717,4.069-1.58,8.287-4.688,11.279c-1.792,1.725-4.337,2.689-6.771,2.178    c-5.325-1.118-6.615-7.714-7.05-13.011c-1.03-12.558-2.84-25.052-5.402-37.389c-1.285-6.19-7.504-9.971-13.628-8.401    c-0.057,0.014-0.113,0.03-0.17,0.043c-3.65,0.928-6.512,3.696-7.684,7.274c-7.433,22.696-17.126,44.651-28.991,65.378    c-2.293,4.006-4.795,8.113-9.195,10.081c-2.535,1.134-5.573,1.184-7.937-0.274c-5.17-3.189-4.032-10.607-2.486-16.337    c5.937-22.001,9.667-44.594,11.148-67.332c-0.006-0.002-0.012-0.004-0.018-0.006c1.245-26.786-5.059-53.841-17.761-77.444    c-34.275,7.06-71.788-1.128-97.418-26.21c-5.965-5.837-10.681-12.855-14.125-20.457c-1.171-2.585-2.207-5.446-1.606-8.225    c0.592-2.743,3.389-5.171,6.081-4.382c1.636,0.48,2.759,1.936,3.814,3.275c18.805,23.899,51.627,34.716,81.678,30.053    c13.735-2.132,26.788-7.244,38.626-14.495c-1.943-1.836-3.848-3.622-4.482-3.97c-12.862,5.468-27.352,7.239-41.023,4.376    c-13.093-2.743-25.516-9.962-33.008-21.043c-6.887-10.186-9.071-23.729-4.783-35.167c-0.635-3.816-0.786-7.4-0.207-9.967    c1.66-7.347,2.978-8.742,7.709-14.603c5.079-6.293,11.805-11.869,19.128-16.138c0.976-0.899,2.012-1.736,3.065-2.51    c4.242-3.116,8.99-5.637,12.589-9.478c3.599-3.841,5.877-9.565,3.85-14.421c4.4,2.433,7.309,7.352,7.322,12.38    c1.989-2.459,2.497-6.029,1.273-8.945c3.313,3.827,4.678,9.04,4.229,14.097c5.643,0.364,11.076,2.009,15.93,5.487    c2.456,1.76,4.723,6.378,7.436,8.363c0.741-2.369,0.846-4.931,0.147-7.32c1.842,1.63,3.476,4.621,2.228,6.739    c-0.273,0.463-0.5,0.936-0.719,1.409c3.862,1.14,6.997,0.828,11.013,1.442c4.607,0.704,8.664,3.567,11.697,7.105    c3.033,3.539,5.17,7.74,7.247,11.912c2.728,5.479,7.761,8.742,8.022,14.858c0.323,7.539-3.156,14.73-7.33,21.017    c-2.32,3.494-4.916,6.805-7.713,9.937c1.153,0.629,2.33,1.214,3.512,1.787c3.169-3.513,6.166-7.177,8.92-11.003    c17.767-24.681,26.969-54.804,29.889-85.074c0.532-5.512,0.931-11.271,4.502-15.768c2.314-2.913,5.984-4.718,9.618-3.924    c6.112,1.336,8.04,8.648,8.644,14.728c3.24,32.598-2.181,66.327-17.506,95.281c-1.603,3.029-3.344,5.988-5.165,8.898    C275.836,349.211,281.288,371.745,284.851,394.583z M209.223,528.936c-0.008-2.229-0.723-4.852-2.829-5.581    c-1.226-0.423-2.624-0.04-3.669,0.727s-1.79,1.874-2.418,3.008c-2.145,3.871-3.176,8.351-2.938,12.77    c0.073,1.359,0.357,2.875,1.475,3.652c0.871,0.606,2.067,0.587,3.046,0.176s1.775-1.16,2.481-1.952    C207.475,538.254,209.238,533.603,209.223,528.936z M277.965,404.379c-0.895-3.034-1.813-6.061-2.704-9.096    c-14.998,8.919-60.704,14.856-72.503,11.888c0.812,3.695,1.625,7.39,2.437,11.085C230.114,420.647,255.648,415.714,277.965,404.379z     M282.501,511c0.159-2.169-0.377-4.423-1.69-6.157c-0.501-0.661-1.159-1.268-1.975-1.418c-1.6-0.294-2.933,1.229-3.649,2.691    c-1.537,3.14-1.964,6.809-1.19,10.218c0.303,1.334,0.951,2.795,2.261,3.189c1.641,0.493,3.2-0.973,4.111-2.425    C281.524,515.256,282.342,513.169,282.501,511z" fill="#000000" fill-opacity="1"></path></g><path d="M116.68 362.97L149.00 362.97L149.00 357.92L123.97 357.92L148.74 319.52L148.74 316.00L118.92 316.00L118.92 321.05L141.44 321.05L116.68 359.45ZM157.96 362.97L163.78 362.97L163.78 328.22L157.96 328.22ZM160.90 321.05C163.20 321.05 164.80 319.52 164.80 317.15C164.80 314.91 163.20 313.37 160.90 313.37C158.60 313.37 157.00 314.91 157.00 317.15C157.00 319.52 158.60 321.05 160.90 321.05ZM175.56 377.63L181.38 377.63L181.38 365.85L181.25 359.77C184.39 362.33 187.72 363.80 190.85 363.80C198.85 363.80 205.96 356.96 205.96 345.05C205.96 334.36 201.09 327.32 192.13 327.32C188.10 327.32 184.20 329.63 181.06 332.19L180.87 332.19L180.36 328.22L175.56 328.22ZM189.89 358.94C187.59 358.94 184.52 357.98 181.38 355.29L181.38 337.05C184.77 333.92 187.78 332.25 190.72 332.25C197.32 332.25 199.88 337.44 199.88 345.12C199.88 353.76 195.65 358.94 189.89 358.94ZM215.24 377.63L221.06 377.63L221.06 365.85L220.93 359.77C224.07 362.33 227.40 363.80 230.53 363.80C238.53 363.80 245.64 356.96 245.64 345.05C245.64 334.36 240.77 327.32 231.81 327.32C227.78 327.32 223.88 329.63 220.74 332.19L220.55 332.19L220.04 328.22L215.24 328.22ZM229.57 358.94C227.27 358.94 224.20 357.98 221.06 355.29L221.06 337.05C224.45 333.92 227.46 332.25 230.40 332.25C237.00 332.25 239.56 337.44 239.56 345.12C239.56 353.76 235.33 358.94 229.57 358.94ZM282.82 363.80C292.61 363.80 298.76 357.92 298.76 350.49C298.76 343.52 294.53 340.32 289.09 337.95L282.37 335.07C278.72 333.53 274.63 331.80 274.63 327.26C274.63 323.04 278.08 320.35 283.40 320.35C287.75 320.35 291.20 322.08 294.08 324.76L297.22 320.99C293.89 317.53 288.96 315.16 283.40 315.16C274.88 315.16 268.61 320.41 268.61 327.64C268.61 334.49 273.80 337.82 278.15 339.68L284.93 342.62C289.35 344.60 292.74 346.14 292.74 350.94C292.74 355.55 289.03 358.62 282.88 358.62C278.02 358.62 273.28 356.32 269.96 352.80L266.37 356.83C270.47 361.12 276.16 363.80 282.82 363.80ZM321.48 363.80C326.21 363.80 329.92 362.20 333.00 360.22L330.88 356.38C328.32 358.11 325.57 359.13 322.18 359.13C315.59 359.13 311.04 354.40 310.66 346.97L334.08 346.97C334.21 346.14 334.34 344.92 334.34 343.64C334.34 333.72 329.35 327.32 320.52 327.32C312.45 327.32 304.84 334.36 304.84 345.63C304.84 357.08 312.26 363.80 321.48 363.80ZM310.60 342.75C311.30 335.96 315.65 332.00 320.58 332.00C326.02 332.00 329.22 335.77 329.22 342.75ZM342.92 362.97L348.74 362.97L348.74 337.76C351.94 334.17 354.88 332.44 357.51 332.44C361.92 332.44 363.97 335.20 363.97 341.72L363.97 362.97L369.80 362.97L369.80 337.76C373.06 334.17 375.88 332.44 378.56 332.44C382.98 332.44 385.03 335.20 385.03 341.72L385.03 362.97L390.85 362.97L390.85 340.96C390.85 332.06 387.46 327.32 380.29 327.32C376.07 327.32 372.42 330.08 368.84 333.98C367.43 329.88 364.55 327.32 359.24 327.32C355.08 327.32 351.43 329.95 348.42 333.28L348.23 333.28L347.72 328.22L342.92 328.22ZM402.18 362.97L408.00 362.97L408.00 328.22L402.18 328.22ZM405.12 321.05C407.43 321.05 409.03 319.52 409.03 317.15C409.03 314.91 407.43 313.37 405.12 313.37C402.82 313.37 401.22 314.91 401.22 317.15C401.22 319.52 402.82 321.05 405.12 321.05ZM425.92 363.80C427.52 363.80 428.48 363.61 429.32 363.29L428.48 358.81C427.84 358.94 427.59 358.94 427.27 358.94C426.37 358.94 425.60 358.24 425.60 356.44L425.60 312.03L419.78 312.03L419.78 356.06C419.78 360.99 421.57 363.80 425.92 363.80ZM444.16 363.80C445.76 363.80 446.72 363.61 447.56 363.29L446.72 358.81C446.08 358.94 445.83 358.94 445.51 358.94C444.61 358.94 443.84 358.24 443.84 356.44L443.84 312.03L438.02 312.03L438.02 356.06C438.02 360.99 439.81 363.80 444.16 363.80ZM464.26 363.80C468.55 363.80 472.45 361.56 475.78 358.81L475.97 358.81L476.48 362.97L481.28 362.97L481.28 341.60C481.28 333.02 477.70 327.32 469.25 327.32C463.68 327.32 458.76 329.82 455.56 331.87L457.86 335.90C460.61 334.04 464.26 332.19 468.29 332.19C473.99 332.19 475.46 336.48 475.46 340.96C460.68 342.62 454.08 346.40 454.08 353.95C454.08 360.22 458.44 363.80 464.26 363.80ZM465.92 359.13C462.47 359.13 459.78 357.53 459.78 353.56C459.78 349.08 463.75 346.20 475.46 344.80L475.46 354.52C472.07 357.53 469.32 359.13 465.92 359.13ZM501.44 363.80C509.64 363.80 514.12 359.13 514.12 353.50C514.12 346.91 508.55 344.86 503.49 342.94C499.59 341.47 496.00 340.25 496.00 336.92C496.00 334.24 498.05 331.93 502.47 331.93C505.54 331.93 507.97 333.21 510.34 335.00L513.16 331.23C510.47 329.12 506.69 327.32 502.40 327.32C494.85 327.32 490.37 331.68 490.37 337.18C490.37 343.07 495.68 345.44 500.55 347.23C504.39 348.70 508.48 350.24 508.48 353.82C508.48 356.83 506.24 359.26 501.64 359.26C497.48 359.26 494.34 357.60 491.33 355.16L488.45 359.00C491.78 361.76 496.52 363.80 501.44 363.80Z" data-element="company-name" data-text-path="" data-text="Zipp Semillas" data-font-family="JP Noto Sans" fill="#000000" fill-opacity="1"></path></g></g></svg>